<?xml version="1.0" standalone="no"?>
<!DOCTYPE svg PUBLIC "-//W3C//DTD SVG 20010904//EN"
 "http://www.w3.org/TR/2001/REC-SVG-20010904/DTD/svg10.dtd">
<svg version="1.0" xmlns="http://www.w3.org/2000/svg"
 width="3000.000000pt" height="3000.000000pt" viewBox="0 0 3000.000000 3000.000000"
 preserveAspectRatio="xMidYMid meet">
<metadata>
Created by potrace 1.14, written by Peter Selinger 2001-2017
</metadata>
<g transform="translate(0.000000,3000.000000) scale(0.100000,-0.100000)"
fill="#000000" stroke="none">
<path d="M3463 15001 c2 -3109 2 -3116 22 -3114 50 5 121 15 135 18 8 2 69 11
135 20 129 17 154 21 200 29 17 3 57 8 90 12 33 3 67 8 77 9 25 5 98 15 148
20 124 12 166 18 175 25 7 6 10 584 10 1698 0 930 1 1689 2 1688 3 -3 173
-496 178 -516 2 -8 17 -53 33 -100 37 -104 267 -776 367 -1070 40 -118 98
-289 129 -380 31 -91 82 -239 112 -330 31 -91 59 -174 64 -185 5 -11 52 -148
105 -305 53 -157 102 -301 108 -320 12 -33 15 -35 57 -34 25 0 74 3 110 7 36
4 81 9 100 12 19 2 62 6 95 9 33 4 76 8 95 11 63 7 124 14 195 20 39 4 81 8
95 10 14 2 48 7 75 10 28 4 61 8 75 10 58 10 166 25 175 25 7 0 10 975 9 2908
-1 1599 -2 2912 -3 2918 -1 8 -138 11 -489 11 l-487 1 0 -1754 c0 -965 -3
-1754 -6 -1754 -4 0 -19 35 -34 78 -14 42 -58 165 -97 272 -75 210 -140 391
-211 590 -161 449 -215 600 -259 720 -27 74 -51 146 -54 160 -3 13 -8 29 -13
35 -4 5 -13 28 -20 50 -7 22 -16 49 -21 60 -5 11 -23 61 -40 110 -18 50 -51
144 -75 210 -157 440 -255 715 -316 882 -38 105 -69 195 -69 198 0 4 -6 21
-14 38 -8 18 -19 48 -25 68 l-12 36 -464 0 -464 0 2 -3116z"/>
<path d="M7580 18086 c-4 -580 1 -5710 5 -5716 4 -6 18 -8 33 -6 15 2 68 7
117 11 50 4 108 8 130 10 42 4 170 14 245 20 25 2 88 6 140 10 52 3 106 8 120
10 14 2 70 7 125 10 55 4 118 8 140 10 137 13 261 23 373 30 43 3 97 7 122 10
42 5 86 8 270 20 41 3 91 7 110 10 19 2 73 7 120 10 47 3 105 8 130 10 25 2
83 7 130 10 47 4 101 8 120 10 19 2 79 7 133 10 54 4 106 8 115 9 16 3 17 41
17 471 l0 468 -90 -2 c-49 -2 -112 -4 -140 -6 -27 -1 -113 -6 -190 -10 -77 -4
-158 -8 -180 -10 -22 -1 -92 -5 -155 -9 -63 -4 -140 -9 -170 -12 -30 -2 -91
-6 -135 -9 -44 -3 -115 -7 -158 -11 -42 -3 -101 -7 -130 -9 -53 -3 -217 -14
-318 -20 l-55 -4 0 725 0 724 25 0 c14 1 58 3 96 5 39 3 318 7 620 9 303 3
553 6 556 6 3 0 5 218 5 485 l0 485 -31 0 c-70 1 -416 -2 -625 -6 -124 -3
-320 -6 -436 -7 l-210 -3 -1 651 c0 357 4 652 8 655 4 3 391 5 861 5 l854 -1
0 487 0 486 -1348 0 -1348 0 0 -31z"/>
<path d="M10906 18111 c-1 -3 -2 -222 -2 -486 l1 -480 490 -1 c270 -1 497 -2
505 -3 13 -1 15 -257 15 -2244 l0 -2242 195 2 c107 1 327 2 487 3 l293 1 2
2242 3 2241 503 0 502 0 0 487 0 486 -1495 0 c-823 0 -1497 -3 -1499 -6z"/>
<path d="M14530 17961 c-3 -1220 0 -5233 3 -5239 3 -4 218 -7 479 -7 l473 0 0
1106 0 1105 655 -1 c360 0 660 1 666 3 8 2 11 140 11 487 l1 485 -667 2 -666
3 0 617 c0 410 3 619 10 621 5 2 403 3 883 2 l872 0 0 486 0 486 -1360 0
-1360 0 0 -156z"/>
<path d="M17860 15384 l0 -2734 43 -1 c115 -2 584 -18 722 -24 497 -23 660
-31 800 -40 39 -3 117 -7 175 -10 228 -12 431 -24 505 -30 33 -2 107 -7 165
-10 58 -3 131 -8 163 -10 l57 -5 0 480 0 480 -22 4 c-13 3 -79 8 -148 11 -69
3 -152 8 -185 10 -33 2 -107 6 -165 10 -58 3 -132 8 -165 10 -79 6 -243 15
-363 20 -53 3 -149 7 -212 10 -102 6 -232 11 -355 14 l-41 1 0 2273 0 2272
-487 1 -487 1 0 -2733z"/>
<path d="M21316 18111 c-7 -11 -4 -5651 3 -5655 3 -2 65 -7 136 -10 72 -4 153
-9 180 -11 28 -2 88 -7 135 -10 47 -3 110 -8 140 -10 30 -3 82 -7 115 -9 58
-5 112 -10 203 -22 l42 -5 0 2869 0 2869 -475 0 c-262 0 -477 -2 -479 -6z"/>
<path d="M23110 18109 c0 -5 39 -109 86 -231 48 -123 95 -243 104 -268 9 -25
79 -205 154 -400 76 -195 165 -425 198 -510 73 -189 101 -261 132 -342 14 -35
84 -216 156 -403 199 -516 209 -542 255 -656 l43 -106 -53 -119 c-28 -65 -91
-209 -140 -319 -97 -222 -258 -588 -285 -650 -10 -22 -40 -92 -68 -155 -27
-63 -62 -142 -76 -175 -15 -33 -164 -370 -330 -750 l-304 -690 42 -7 c22 -3
70 -9 106 -13 36 -3 72 -8 80 -10 8 -2 51 -7 95 -11 44 -3 89 -8 100 -10 11
-2 45 -6 75 -9 69 -6 148 -15 180 -20 14 -2 50 -7 80 -10 81 -8 170 -20 246
-34 l42 -8 37 86 c20 47 73 169 117 271 44 102 88 204 99 227 10 24 19 45 19
48 0 2 13 34 30 69 16 36 41 94 55 128 15 35 34 81 44 103 10 22 44 101 76
175 31 74 67 158 80 185 12 28 51 119 86 202 35 84 66 153 69 153 3 0 135
-334 294 -742 159 -409 313 -805 342 -880 30 -75 54 -141 54 -147 0 -6 9 -15
20 -21 11 -6 20 -9 20 -6 0 2 18 0 40 -5 22 -5 57 -12 78 -14 20 -3 60 -10 87
-15 28 -5 64 -11 80 -14 17 -2 55 -9 85 -15 64 -12 73 -14 240 -40 69 -11 141
-22 160 -25 19 -4 82 -13 140 -21 58 -8 115 -17 128 -20 13 -3 22 -1 22 7 0
10 -59 169 -359 963 -48 127 -145 383 -215 570 -70 187 -131 349 -137 360 -7
17 -97 252 -204 540 -12 33 -75 200 -140 370 -65 171 -130 344 -145 385 l-28
74 20 46 c11 25 39 92 63 150 50 123 320 771 339 815 8 17 28 66 46 110 18 44
41 100 52 124 11 25 51 121 90 215 39 94 81 196 93 226 56 135 78 187 90 215
8 17 82 194 165 395 259 626 268 647 276 661 2 4 -237 6 -530 6 l-534 0 -52
-126 c-29 -69 -59 -139 -66 -156 -7 -16 -58 -140 -114 -275 -55 -135 -105
-254 -110 -265 -5 -11 -39 -91 -75 -179 -37 -87 -71 -170 -77 -185 -6 -14 -12
-28 -12 -31 -1 -3 -8 -21 -17 -40 -9 -19 -47 -110 -85 -202 -38 -93 -71 -168
-74 -168 -3 0 -16 28 -29 63 -32 83 -69 179 -201 517 -61 157 -129 332 -152
390 -22 58 -44 114 -49 125 -5 11 -49 124 -98 250 -49 127 -94 242 -101 256
l-12 27 -519 -1 c-285 0 -519 -4 -519 -8z"/>
</g>
</svg>
